# Blender 4.2.0
# www.blender.org
mtllib bentShelf.mtl
o Shelf.001
v -24.987103 27.886429 16.304375
v -24.987103 28.130684 16.304375
v -24.987103 27.886429 11.828674
v -24.987103 28.130684 11.828674
v -22.143526 27.886429 16.304375
v -22.143526 28.130684 16.304375
v -22.143526 27.886429 11.828674
v -22.143526 28.130684 11.828674
v -24.987103 27.886429 13.681894
v -24.987103 27.886429 13.953787
v -24.987103 28.130684 13.953787
v -24.987103 28.130684 13.681894
v -22.143526 27.886429 13.953787
v -22.143526 27.886429 13.681894
v -22.143526 28.130684 13.681894
v -22.143526 28.130684 13.953787
v -24.987103 27.886429 18.283760
v -24.987103 28.130684 18.283760
v -21.697048 28.130684 18.283760
v -21.697048 27.886429 18.283760
v -16.982372 28.130684 16.304375
v -16.982372 27.886429 16.304375
v -16.982372 28.130684 18.283760
v -16.982372 27.886429 18.283760
v -17.965593 28.130684 16.304375
v -17.673401 28.130684 16.304375
v -17.673401 27.886429 16.304375
v -17.965593 27.886429 16.304375
v -17.965593 27.886429 18.283760
v -17.673401 27.886429 18.283760
v -17.673401 28.130684 18.283760
v -17.965593 28.130684 18.283760
v -24.987103 26.900974 13.681894
v -24.987103 26.900974 13.953787
v -17.965593 26.900974 18.283760
v -17.673401 26.900974 18.283760
v -24.050961 26.900974 13.953787
v -22.143526 27.886429 13.953787
v -22.143526 27.886429 13.681894
v -24.050961 26.900974 13.681894
v -17.673401 26.900974 18.283760
v -17.673401 27.886429 16.304375
v -17.965593 27.886429 16.304375
v -17.965593 26.900974 18.283760
vn -1.0000 -0.0000 -0.0000
vn -0.0000 -0.0000 -1.0000
vn 1.0000 -0.0000 -0.0000
vn -0.0000 -1.0000 -0.0000
vn -0.0000 1.0000 -0.0000
vn -0.0000 -0.0000 1.0000
vn 0.4590 -0.8884 -0.0000
vn -0.0000 -0.8952 -0.4457
vt 0.375000 0.166667
vt 0.625000 0.166667
vt 0.625000 0.250000
vt 0.375000 0.250000
vt 0.625000 0.500000
vt 0.375000 0.500000
vt 0.375000 0.666667
vt 0.625000 0.666667
vt 0.625000 0.750000
vt 0.375000 0.750000
vt 0.625000 0.000000
vt 0.375000 0.000000
vt 0.125000 0.666667
vt 0.125000 0.750000
vt 0.875000 0.666667
vt 0.875000 0.750000
vt 0.875000 0.500000
vt 0.875000 0.583333
vt 0.625000 0.583333
vt 0.125000 0.500000
vt 0.375000 0.583333
vt 0.125000 0.583333
vt 0.625000 0.083333
vt 0.375000 0.083333
vt 0.625000 1.000000
vt 0.375000 1.000000
vt 0.196134 0.666667
vt 0.196134 0.583333
s 0
f 9/1/1 12/2/1 4/3/1 3/4/1
f 3/4/2 4/3/2 8/5/2 7/6/2
f 13/7/3 16/8/3 6/9/3 5/10/3
f 2/11/1 1/12/1 17/12/1 18/11/1
f 10/13/4 13/7/4 5/10/4 1/14/4
f 16/8/5 11/15/5 2/16/5 6/9/5
f 8/5/5 4/17/5 12/18/5 15/19/5
f 15/19/5 12/18/5 11/15/5 16/8/5
f 3/20/4 7/6/4 14/21/4 9/22/4
f 28/10/5 27/10/5 42/10/5 43/10/5
f 7/6/3 8/5/3 15/19/3 14/21/3
f 14/21/3 15/19/3 16/8/3 13/7/3
f 1/12/1 2/11/1 11/23/1 10/24/1
f 10/24/1 11/23/1 12/2/1 9/1/1
f 20/10/6 19/9/6 18/25/6 17/26/6
f 1/14/4 5/10/4 20/10/4 17/14/4
f 6/9/5 2/16/5 18/16/5 19/9/5
f 27/10/2 26/9/2 21/9/2 22/10/2
f 22/10/3 21/9/3 23/9/3 24/10/3
f 31/9/6 30/10/6 24/10/6 23/9/6
f 30/10/4 27/10/4 22/10/4 24/10/4
f 26/9/5 31/9/5 23/9/5 21/9/5
f 6/9/5 19/9/5 32/9/5 25/9/5
f 25/9/5 32/9/5 31/9/5 26/9/5
f 20/10/4 5/10/4 28/10/4 29/10/4
f 29/10/1 28/10/1 43/10/1 44/10/1 35/10/1
f 19/9/6 20/10/6 29/10/6 32/9/6
f 32/9/6 29/10/6 30/10/6 31/9/6
f 5/10/2 6/9/2 25/9/2 28/10/2
f 28/10/2 25/9/2 26/9/2 27/10/2
f 13/7/6 10/13/6 34/13/6 37/27/6 38/7/6
f 27/10/3 30/10/3 36/10/3 41/10/3 42/10/3
f 30/10/6 29/10/6 35/10/6 36/10/6
f 35/10/5 44/10/5 41/10/5 36/10/5
f 9/22/2 14/21/2 39/21/2 40/28/2 33/22/2
f 33/22/4 40/28/4 37/27/4 34/13/4
f 10/24/1 9/1/1 33/1/1 34/24/1
f 37/27/7 40/28/7 39/21/7 38/7/7
f 41/10/8 44/10/8 43/10/8 42/10/8
f 14/21/5 13/7/5 38/7/5 39/21/5
