# Blender 4.2.0
# www.blender.org
mtllib Broom.mtl
o Broom
v -20.739599 6.854020 5.375842
v -21.020714 8.679727 4.609181
v -20.354729 6.891377 5.323681
v -20.635845 8.717084 4.557020
v -19.986414 6.985155 5.411948
v -20.267530 8.810862 4.645287
v -19.690727 7.121075 5.627205
v -19.971844 8.946782 4.860544
v -19.512684 7.278447 5.936681
v -19.793798 9.104154 5.170020
v -19.479387 7.433311 6.293262
v -19.760504 9.259018 5.526601
v -19.595911 7.562090 6.642660
v -19.877026 9.387797 5.875999
v -19.844511 7.645180 6.931684
v -20.125628 9.470886 6.165023
v -20.187344 7.669930 7.116331
v -20.468458 9.495637 6.349671
v -20.572212 7.632573 7.168492
v -20.853329 9.458280 6.401832
v -20.940527 7.538795 7.080225
v -21.221643 9.364503 6.313565
v -21.236214 7.402875 6.864968
v -21.517330 9.228581 6.098308
v -21.414259 7.245503 6.555492
v -21.695374 9.071210 5.788832
v -21.447554 7.090640 6.198912
v -21.728670 8.916347 5.432251
v -21.331032 6.961860 5.849514
v -21.612146 8.787567 5.082853
v -21.082430 6.878770 5.560490
v -21.363546 8.704477 4.793829
v -21.119661 11.785583 3.505031
v -21.420080 11.756422 3.545746
v -20.832167 11.858782 3.573930
v -20.601360 11.964878 3.741953
v -20.462385 12.087718 3.983521
v -20.436396 12.208600 4.261858
v -20.527349 12.309122 4.534588
v -20.721401 12.373980 4.760191
v -20.989004 12.393298 4.904322
v -21.289423 12.364139 4.945037
v -21.576920 12.290938 4.876139
v -21.807724 12.184843 4.708116
v -21.946699 12.062003 4.466547
v -21.972689 11.941121 4.188211
v -21.881735 11.840599 3.915481
v -21.687685 11.775742 3.689877
v -21.651741 15.172174 2.304524
v -21.873041 15.150694 2.334517
v -21.439959 15.226097 2.355278
v -21.269938 15.304252 2.479051
v -21.167562 15.394741 2.657001
v -21.148418 15.483788 2.862035
v -21.215418 15.557837 3.062940
v -21.358364 15.605613 3.229129
v -21.555492 15.619844 3.335302
v -21.776794 15.598364 3.365294
v -21.988575 15.544441 3.314541
v -22.158596 15.466288 3.190768
v -22.260971 15.375798 3.012818
v -22.280117 15.286751 2.807784
v -22.213116 15.212703 2.606879
v -22.070169 15.164927 2.440690
v -22.259163 19.051334 0.886763
v -22.405066 19.037170 0.906537
v -22.119537 19.086884 0.920224
v -22.007444 19.138411 1.001827
v -21.939949 19.198069 1.119147
v -21.927328 19.256777 1.254324
v -21.971500 19.305595 1.386779
v -22.065742 19.337095 1.496346
v -22.195709 19.346478 1.566345
v -22.341610 19.332315 1.586119
v -22.481236 19.296764 1.552658
v -22.593328 19.245239 1.471055
v -22.660824 19.185581 1.353734
v -22.673447 19.126873 1.218557
v -22.629272 19.078053 1.086102
v -22.535030 19.046555 0.976535
v -22.916988 23.276535 -0.736409
v -23.008947 23.267609 -0.723946
v -22.828985 23.298941 -0.715319
v -22.758335 23.331417 -0.663887
v -22.715796 23.369019 -0.589942
v -22.707840 23.406021 -0.504744
v -22.735682 23.436790 -0.421260
v -22.795080 23.456642 -0.352202
v -22.876995 23.462557 -0.308084
v -22.968952 23.453630 -0.295621
v -23.056955 23.431225 -0.316711
v -23.127605 23.398748 -0.368143
v -23.170147 23.361147 -0.442088
v -23.178102 23.324144 -0.527287
v -23.150261 23.293375 -0.610770
v -23.090862 23.273521 -0.679828
v -23.296434 25.701481 -1.628290
v -23.343262 25.696938 -1.621944
v -23.251621 25.712891 -1.617551
v -23.215647 25.729427 -1.591361
v -23.193985 25.748577 -1.553708
v -23.189934 25.767418 -1.510323
v -23.204111 25.783085 -1.467813
v -23.234358 25.793198 -1.432647
v -23.276070 25.796207 -1.410182
v -23.322895 25.791660 -1.403835
v -23.367708 25.780251 -1.414575
v -23.403683 25.763714 -1.440764
v -23.425346 25.744568 -1.478418
v -23.429398 25.725727 -1.521802
v -23.415220 25.710056 -1.564313
v -23.384972 25.699947 -1.599478
vn -0.0853 -0.3969 -0.9139
vn 0.2986 -0.3301 -0.8955
vn 0.6371 -0.2130 -0.7407
vn 0.8786 -0.0634 -0.4732
vn 0.9864 0.0957 -0.1337
vn 0.9440 0.2403 0.2262
vn 0.7578 0.3484 0.5517
vn 0.4563 0.4033 0.7932
vn 0.0853 0.3969 0.9139
vn -0.2986 0.3301 0.8955
vn -0.6371 0.2130 0.7407
vn -0.8786 0.0634 0.4732
vn -0.9864 -0.0957 0.1337
vn -0.9440 -0.2403 -0.2262
vn 0.9327 0.2997 0.2006
vn -0.7578 -0.3484 -0.5517
vn -0.4563 -0.4033 -0.7932
vn 0.1406 -0.9129 0.3833
vn -0.9503 -0.1893 -0.2472
vn -0.6450 0.2724 0.7140
vn -0.4646 -0.3426 -0.8166
vn 0.8675 -0.0034 -0.4974
vn 0.0759 0.4560 0.8868
vn -0.9511 -0.1799 -0.2509
vn 0.2888 -0.2694 -0.9187
vn 0.7470 0.4075 0.5253
vn -0.8860 0.1232 0.4471
vn 0.9750 0.1554 -0.1586
vn -0.3072 0.3892 0.8684
vn -0.7654 -0.2877 -0.5757
vn 0.6265 -0.1526 -0.7643
vn 0.4461 0.4624 0.7663
vn -0.0944 -0.3361 -0.9371
vn -0.9935 -0.0356 0.1082
vn -0.8842 0.1054 0.4551
vn 0.7488 0.3985 0.5296
vn -0.7645 -0.2971 -0.5721
vn 0.4478 0.4534 0.7707
vn -0.0930 -0.3456 -0.9338
vn -0.4634 -0.3520 -0.8132
vn 0.0774 0.4470 0.8912
vn 0.2904 -0.2789 -0.9154
vn -0.3060 0.3802 0.8728
vn 0.6284 -0.1620 -0.7609
vn -0.6440 0.2633 0.7183
vn 0.8695 -0.0127 -0.4938
vn -0.8851 0.1140 0.4512
vn 0.9771 0.1463 -0.1548
vn -0.9927 -0.0449 0.1122
vn 0.9347 0.2906 0.2046
vn 0.2943 -0.3025 -0.9066
vn 0.9789 0.1377 -0.1512
vn -0.9918 -0.0536 0.1159
vn 0.9365 0.2821 0.2083
vn -0.9494 -0.1981 -0.2436
vn 0.7505 0.3900 0.5335
vn -0.7635 -0.3060 -0.5687
vn 0.4494 0.4449 0.7747
vn -0.0917 -0.3545 -0.9306
vn -0.4623 -0.3609 -0.8100
vn 0.0788 0.4385 0.8953
vn 0.2919 -0.2877 -0.9122
vn -0.3048 0.3717 0.8769
vn 0.6300 -0.1707 -0.7576
vn -0.6429 0.2547 0.7223
vn 0.8712 -0.0213 -0.4904
vn 0.7509 0.3882 0.5343
vn -0.3027 0.3573 0.8836
vn 0.6326 -0.1854 -0.7519
vn -0.6411 0.2403 0.7289
vn 0.8740 -0.0360 -0.4845
vn -0.8825 0.0908 0.4615
vn 0.9817 0.1231 -0.1451
vn -0.9902 -0.0683 0.1221
vn 0.9393 0.2677 0.2146
vn -0.9478 -0.2128 -0.2376
vn 0.7533 0.3756 0.5399
vn -0.7617 -0.3208 -0.5630
vn 0.4519 0.4306 0.7813
vn -0.0895 -0.3693 -0.9250
vn -0.4603 -0.3757 -0.8043
vn 0.0811 0.4242 0.9020
vn -0.1406 0.9129 -0.3833
vn -0.7633 -0.3078 -0.5680
vn 0.4497 0.4431 0.7755
vn -0.0914 -0.3563 -0.9299
vn -0.4621 -0.3627 -0.8093
vn 0.0791 0.4367 0.8961
vn 0.2922 -0.2895 -0.9115
vn -0.3045 0.3699 0.8777
vn 0.6303 -0.1725 -0.7569
vn -0.6427 0.2529 0.7231
vn 0.8716 -0.0232 -0.4897
vn -0.8840 0.1036 0.4559
vn 0.9792 0.1359 -0.1504
vn -0.9916 -0.0554 0.1167
vn 0.9369 0.2803 0.2091
vn -0.9492 -0.1999 -0.2429
vt 1.000000 0.500000
vt 1.000000 1.000000
vt 0.937500 1.000000
vt 0.937500 0.500000
vt 0.875000 1.000000
vt 0.875000 0.500000
vt 0.812500 1.000000
vt 0.812500 0.500000
vt 0.750000 1.000000
vt 0.750000 0.500000
vt 0.687500 1.000000
vt 0.687500 0.500000
vt 0.625000 1.000000
vt 0.625000 0.500000
vt 0.562500 1.000000
vt 0.562500 0.500000
vt 0.500000 1.000000
vt 0.500000 0.500000
vt 0.437500 1.000000
vt 0.437500 0.500000
vt 0.375000 1.000000
vt 0.375000 0.500000
vt 0.312500 1.000000
vt 0.312500 0.500000
vt 0.250000 1.000000
vt 0.250000 0.500000
vt 0.187500 1.000000
vt 0.187500 0.500000
vt 0.125000 1.000000
vt 0.125000 0.500000
vt 0.062500 1.000000
vt 0.062500 0.500000
vt 0.000000 1.000000
vt 0.000000 0.500000
vt 0.750000 0.490000
vt 0.841844 0.471731
vt 0.919706 0.419706
vt 0.971731 0.341844
vt 0.990000 0.250000
vt 0.971731 0.158156
vt 0.919706 0.080294
vt 0.841844 0.028269
vt 0.750000 0.010000
vt 0.658156 0.028269
vt 0.580294 0.080294
vt 0.528269 0.158156
vt 0.510000 0.250000
vt 0.528269 0.341844
vt 0.580294 0.419706
vt 0.658156 0.471731
vt 0.341844 0.471731
vt 0.250000 0.490000
vt 0.158156 0.471731
vt 0.080294 0.419706
vt 0.028269 0.341844
vt 0.010000 0.250000
vt 0.028269 0.158156
vt 0.080294 0.080294
vt 0.158156 0.028269
vt 0.250000 0.010000
vt 0.341844 0.028269
vt 0.419706 0.080294
vt 0.471731 0.158156
vt 0.490000 0.250000
vt 0.471731 0.341844
vt 0.419706 0.419706
s 0
f 1/1/1 2/2/1 4/3/1 3/4/1
f 3/4/2 4/3/2 6/5/2 5/6/2
f 5/6/3 6/5/3 8/7/3 7/8/3
f 7/8/4 8/7/4 10/9/4 9/10/4
f 9/10/5 10/9/5 12/11/5 11/12/5
f 11/12/6 12/11/6 14/13/6 13/14/6
f 13/14/7 14/13/7 16/15/7 15/16/7
f 15/16/8 16/15/8 18/17/8 17/18/8
f 17/18/9 18/17/9 20/19/9 19/20/9
f 19/20/10 20/19/10 22/21/10 21/22/10
f 21/22/11 22/21/11 24/23/11 23/24/11
f 23/24/12 24/23/12 26/25/12 25/26/12
f 25/26/13 26/25/13 28/27/13 27/28/13
f 27/28/14 28/27/14 30/29/14 29/30/14
f 14/13/15 12/11/15 38/11/15 39/13/15
f 29/30/16 30/29/16 32/31/16 31/32/16
f 31/32/17 32/31/17 2/33/17 1/34/17
f 1/35/18 3/36/18 5/37/18 7/38/18 9/39/18 11/40/18 13/41/18 15/42/18 17/43/18 19/44/18 21/45/18 23/46/18 25/47/18 27/48/18 29/49/18 31/50/18
f 47/29/19 46/27/19 62/27/19 63/29/19
f 24/23/20 22/21/20 43/21/20 44/23/20
f 2/33/21 32/31/21 48/31/21 34/33/21
f 10/9/22 8/7/22 36/7/22 37/9/22
f 20/19/23 18/17/23 41/17/23 42/19/23
f 30/29/24 28/27/24 46/27/24 47/29/24
f 6/5/25 4/3/25 33/3/25 35/5/25
f 16/15/26 14/13/26 39/13/26 40/15/26
f 26/25/27 24/23/27 44/23/27 45/25/27
f 12/11/28 10/9/28 37/9/28 38/11/28
f 22/21/29 20/19/29 42/19/29 43/21/29
f 32/31/30 30/29/30 47/29/30 48/31/30
f 8/7/31 6/5/31 35/5/31 36/7/31
f 18/17/32 16/15/32 40/15/32 41/17/32
f 4/3/33 2/2/33 34/2/33 33/3/33
f 28/27/34 26/25/34 45/25/34 46/27/34
f 61/25/35 60/23/35 76/23/35 77/25/35
f 40/15/36 39/13/36 55/13/36 56/15/36
f 48/31/37 47/29/37 63/29/37 64/31/37
f 41/17/38 40/15/38 56/15/38 57/17/38
f 33/3/39 34/2/39 50/2/39 49/3/39
f 34/33/40 48/31/40 64/31/40 50/33/40
f 42/19/41 41/17/41 57/17/41 58/19/41
f 35/5/42 33/3/42 49/3/42 51/5/42
f 43/21/43 42/19/43 58/19/43 59/21/43
f 36/7/44 35/5/44 51/5/44 52/7/44
f 44/23/45 43/21/45 59/21/45 60/23/45
f 37/9/46 36/7/46 52/7/46 53/9/46
f 45/25/47 44/23/47 60/23/47 61/25/47
f 38/11/48 37/9/48 53/9/48 54/11/48
f 46/27/49 45/25/49 61/25/49 62/27/49
f 39/13/50 38/11/50 54/11/50 55/13/50
f 67/5/51 65/3/51 81/3/51 83/5/51
f 54/11/52 53/9/52 69/9/52 70/11/52
f 62/27/53 61/25/53 77/25/53 78/27/53
f 55/13/54 54/11/54 70/11/54 71/13/54
f 63/29/55 62/27/55 78/27/55 79/29/55
f 56/15/56 55/13/56 71/13/56 72/15/56
f 64/31/57 63/29/57 79/29/57 80/31/57
f 57/17/58 56/15/58 72/15/58 73/17/58
f 49/3/59 50/2/59 66/2/59 65/3/59
f 50/33/60 64/31/60 80/31/60 66/33/60
f 58/19/61 57/17/61 73/17/61 74/19/61
f 51/5/62 49/3/62 65/3/62 67/5/62
f 59/21/63 58/19/63 74/19/63 75/21/63
f 52/7/64 51/5/64 67/5/64 68/7/64
f 60/23/65 59/21/65 75/21/65 76/23/65
f 53/9/66 52/7/66 68/7/66 69/9/66
f 88/15/67 87/13/67 103/13/67 104/15/67
f 75/21/68 74/19/68 90/19/68 91/21/68
f 68/7/69 67/5/69 83/5/69 84/7/69
f 76/23/70 75/21/70 91/21/70 92/23/70
f 69/9/71 68/7/71 84/7/71 85/9/71
f 77/25/72 76/23/72 92/23/72 93/25/72
f 70/11/73 69/9/73 85/9/73 86/11/73
f 78/27/74 77/25/74 93/25/74 94/27/74
f 71/13/75 70/11/75 86/11/75 87/13/75
f 79/29/76 78/27/76 94/27/76 95/29/76
f 72/15/77 71/13/77 87/13/77 88/15/77
f 80/31/78 79/29/78 95/29/78 96/31/78
f 73/17/79 72/15/79 88/15/79 89/17/79
f 65/3/80 66/2/80 82/2/80 81/3/80
f 66/33/81 80/31/81 96/31/81 82/33/81
f 74/19/82 73/17/82 89/17/82 90/19/82
f 97/51/83 98/52/83 112/53/83 111/54/83 110/55/83 109/56/83 108/57/83 107/58/83 106/59/83 105/60/83 104/61/83 103/62/83 102/63/83 101/64/83 100/65/83 99/66/83
f 96/31/84 95/29/84 111/29/84 112/31/84
f 89/17/85 88/15/85 104/15/85 105/17/85
f 81/3/86 82/2/86 98/2/86 97/3/86
f 82/33/87 96/31/87 112/31/87 98/33/87
f 90/19/88 89/17/88 105/17/88 106/19/88
f 83/5/89 81/3/89 97/3/89 99/5/89
f 91/21/90 90/19/90 106/19/90 107/21/90
f 84/7/91 83/5/91 99/5/91 100/7/91
f 92/23/92 91/21/92 107/21/92 108/23/92
f 85/9/93 84/7/93 100/7/93 101/9/93
f 93/25/94 92/23/94 108/23/94 109/25/94
f 86/11/95 85/9/95 101/9/95 102/11/95
f 94/27/96 93/25/96 109/25/96 110/27/96
f 87/13/97 86/11/97 102/11/97 103/13/97
f 95/29/98 94/27/98 110/27/98 111/29/98
o BroomHair
v -20.739599 6.854020 5.375842
v -20.354729 6.891377 5.323681
v -19.986414 6.985155 5.411948
v -19.690727 7.121075 5.627205
v -19.512684 7.278447 5.936681
v -19.479387 7.433311 6.293262
v -19.595911 7.562090 6.642660
v -19.844511 7.645180 6.931684
v -20.187344 7.669930 7.116331
v -20.572212 7.632573 7.168492
v -20.940527 7.538795 7.080225
v -21.236214 7.402875 6.864968
v -21.414259 7.245503 6.555492
v -21.447554 7.090640 6.198912
v -21.331032 6.961860 5.849514
v -21.082430 6.878770 5.560490
v -20.649443 5.749606 4.215612
v -20.264572 5.754374 4.065689
v -19.896257 5.899519 4.285143
v -19.600571 6.162945 4.840566
v -19.422527 6.504548 5.647398
v -19.389231 6.872322 6.582807
v -19.505754 7.210276 7.504385
v -19.754354 7.466960 8.271832
v -20.097187 7.603296 8.768309
v -20.482056 7.598529 8.918232
v -20.850370 7.453383 8.698778
v -21.146057 7.189958 8.143355
v -21.324100 6.848355 7.336524
v -21.357397 6.480581 6.401114
v -21.240873 6.142627 5.479536
v -20.992273 5.885943 4.712090
v -20.561676 4.519206 3.994736
v -20.074945 4.525235 3.805133
v -19.609152 4.708795 4.082669
v -19.235209 5.041940 4.785090
v -19.010042 5.473951 5.805459
v -18.967936 5.939060 6.988436
v -19.115297 6.366458 8.153921
v -19.429693 6.691076 9.124479
v -19.863258 6.863496 9.752355
v -20.349989 6.857467 9.941957
v -20.815783 6.673907 9.664422
v -21.189726 6.340763 8.962002
v -21.414890 5.908751 7.941632
v -21.456999 5.443642 6.758656
v -21.309637 5.016244 5.593171
v -20.995241 4.691626 4.622611
v -20.444199 3.188347 3.894814
v -19.867590 3.195489 3.670200
v -19.315784 3.412945 3.998986
v -18.872789 3.807607 4.831114
v -18.606045 4.319393 6.039904
v -18.556162 4.870389 7.441326
v -18.730736 5.376709 8.822028
v -19.103186 5.761271 9.971809
v -19.616814 5.965529 10.715627
v -20.193422 5.958387 10.940241
v -20.745228 5.740931 10.611456
v -21.188225 5.346269 9.779327
v -21.454967 4.834482 8.570539
v -21.504850 4.283487 7.169116
v -21.330278 3.777166 5.788414
v -20.957827 3.392605 4.638633
v -20.191124 1.427350 4.364504
v -19.583490 1.434875 4.127805
v -19.001993 1.664032 4.474280
v -18.535160 2.079930 5.351184
v -18.254065 2.619254 6.625014
v -18.201498 3.199896 8.101843
v -18.385464 3.733459 9.556835
v -18.777956 4.138713 10.768482
v -19.319220 4.353962 11.552322
v -19.926853 4.346436 11.789022
v -20.508350 4.117279 11.442547
v -20.975182 3.701382 10.565643
v -21.256279 3.162057 9.291814
v -21.308846 2.581415 7.814985
v -21.124880 2.047852 6.359993
v -20.732388 1.642598 5.148345
v -19.867064 0.085039 5.531107
v -19.353867 0.091395 5.331195
v -18.862745 0.284937 5.623822
v -18.468468 0.636198 6.364439
v -18.231056 1.091700 7.440294
v -18.186661 1.582101 8.687598
v -18.342035 2.032740 9.916460
v -18.673527 2.375010 10.939796
v -19.130669 2.556806 11.601814
v -19.643866 2.550449 11.801727
v -20.134989 2.356907 11.509100
v -20.529266 2.005648 10.768482
v -20.766676 1.550144 9.692627
v -20.811073 1.059743 8.445323
v -20.655699 0.609104 7.216462
v -20.324207 0.266834 6.193125
v -19.725092 -0.545061 6.016174
v -19.247089 -0.539142 5.829972
v -18.789648 -0.358872 6.102531
v -18.422409 -0.031701 6.792357
v -18.201283 0.392563 7.794431
v -18.159929 0.849333 8.956195
v -18.304649 1.269067 10.100782
v -18.613407 1.587864 11.053938
v -19.039198 1.757193 11.670555
v -19.517200 1.751271 11.856758
v -19.974642 1.571002 11.584200
v -20.341881 1.243833 10.894373
v -20.563009 0.819567 9.892300
v -20.604361 0.362797 8.730536
v -20.459642 -0.056937 7.585949
v -20.150883 -0.375733 6.632792
vn -0.1406 0.9129 -0.3833
vn 0.8643 0.4894 0.1163
vn -0.2153 0.7082 -0.6724
vn -0.5054 0.5738 -0.6445
vn -0.0462 0.9984 0.0320
vn 0.0461 0.7325 -0.6792
vn -0.3273 0.9435 0.0510
vn 0.4100 0.6424 -0.6475
vn -0.6564 0.7452 0.1176
vn 0.8359 0.3498 -0.4230
vn -0.9410 0.2930 0.1692
vn 0.9856 0.1331 -0.1046
vn -0.9919 -0.0915 0.0881
vn 0.9571 0.2805 0.0725
vn -0.9842 -0.1076 -0.1409
vn 0.7090 0.6966 0.1096
vn -0.8482 0.2348 -0.4747
vn 0.2854 0.9565 0.0611
vn -0.9783 0.1305 0.1606
vn -0.9484 0.0260 -0.3159
vn 0.7047 0.6374 0.3116
vn -0.3609 0.1398 -0.9221
vn -0.8162 0.0452 -0.5760
vn 0.2066 0.8050 0.5561
vn 0.4211 0.2498 -0.8719
vn -0.5651 0.6320 0.5304
vn 0.7845 0.2830 -0.5518
vn -0.8868 0.3436 0.3091
vn 0.8935 0.3074 -0.3273
vn -0.9735 0.1826 0.1375
vn 0.9238 0.3440 -0.1681
vn -0.9955 0.0950 -0.0019
vn 0.9160 0.4001 -0.0309
vn -0.9888 0.0460 -0.1419
vn -0.5734 0.3055 0.7602
vn 0.9422 0.2990 -0.1511
vn -0.9987 0.0472 0.0170
vn 0.9348 0.3551 -0.0120
vn -0.9922 -0.0031 -0.1243
vn 0.8872 0.4395 0.1404
vn -0.9539 -0.0312 -0.2986
vn 0.7371 0.5780 0.3502
vn -0.3631 0.0378 -0.9310
vn -0.8264 -0.0307 -0.5622
vn 0.2361 0.7402 0.6296
vn 0.4579 0.1601 -0.8745
vn -0.5756 0.5607 0.5952
vn 0.8144 0.2191 -0.5374
vn -0.8960 0.2811 0.3437
vn 0.9151 0.2571 -0.3108
vn -0.9056 -0.3919 -0.1623
vn 0.8770 0.0270 -0.4797
vn -0.8963 0.0913 0.4339
vn 0.9598 0.1098 -0.2583
vn -0.9746 -0.0195 0.2233
vn 0.9806 0.1682 -0.1010
vn -0.9937 -0.0879 0.0699
vn 0.9739 0.2231 0.0413
vn -0.9873 -0.1414 -0.0730
vn 0.9349 0.2887 0.2063
vn -0.9505 -0.1933 -0.2432
vn 0.8059 0.3831 0.4513
vn -0.3445 -0.2878 -0.8936
vn -0.8272 -0.2527 -0.5018
vn 0.3127 0.4825 0.8182
vn 0.5443 -0.1277 -0.8291
vn 0.9988 0.0205 -0.0436
vn 0.8315 0.1023 0.5461
vn -0.2628 -0.6683 -0.6959
vn -0.7635 -0.5187 -0.3848
vn 0.3616 0.0635 0.9302
vn 0.5807 -0.4859 -0.6532
vn -0.4898 -0.0710 0.8690
vn 0.9005 -0.2212 -0.3745
vn -0.8385 -0.1581 0.5214
vn 0.9800 -0.0821 -0.1815
vn -0.9323 -0.2099 0.2946
vn 0.9994 -0.0033 -0.0343
vn -0.9569 -0.2571 0.1351
vn 0.9930 0.0482 0.1079
vn -0.9498 -0.3129 -0.0053
vn 0.9559 0.0839 0.2816
vn 0.1505 -0.9219 0.3571
vn -0.9639 -0.2342 0.1264
vn 0.9925 0.0725 0.0989
vn -0.9570 -0.2898 -0.0147
vn 0.9557 0.1124 0.2720
vn -0.9144 -0.3656 -0.1739
vn 0.8323 0.1413 0.5360
vn -0.2767 -0.6246 -0.7303
vn -0.7762 -0.4850 -0.4028
vn 0.3590 0.1206 0.9255
vn 0.5813 -0.4420 -0.6832
vn -0.5057 -0.0208 0.8625
vn 0.9012 -0.1881 -0.3905
vn -0.8501 -0.1246 0.5116
vn 0.9797 -0.0558 -0.1926
vn -0.9405 -0.1842 0.2855
vt 0.750000 0.490000
vt 0.658156 0.471731
vt 0.580294 0.419706
vt 0.528269 0.341844
vt 0.510000 0.250000
vt 0.528269 0.158156
vt 0.580294 0.080294
vt 0.658156 0.028269
vt 0.750000 0.010000
vt 0.841844 0.028269
vt 0.919706 0.080294
vt 0.971731 0.158156
vt 0.990000 0.250000
vt 0.971731 0.341844
vt 0.919706 0.419706
vt 0.841844 0.471731
s 0
f 113/67/99 128/68/99 127/69/99 126/70/99 125/71/99 124/72/99 123/73/99 122/74/99 121/75/99 120/76/99 119/77/99 118/78/99 117/79/99 116/80/99 115/81/99 114/82/99
f 135/77/100 136/76/100 152/76/100 151/77/100
f 113/67/101 114/82/101 130/82/101 129/67/101
f 128/68/102 113/67/102 129/67/102 144/68/102
f 121/75/103 122/74/103 138/74/103 137/75/103
f 114/82/104 115/81/104 131/81/104 130/82/104
f 122/74/105 123/73/105 139/73/105 138/74/105
f 115/81/106 116/80/106 132/80/106 131/81/106
f 123/73/107 124/72/107 140/72/107 139/73/107
f 116/80/108 117/79/108 133/79/108 132/80/108
f 124/72/109 125/71/109 141/71/109 140/72/109
f 117/79/110 118/78/110 134/78/110 133/79/110
f 125/71/111 126/70/111 142/70/111 141/71/111
f 118/78/112 119/77/112 135/77/112 134/78/112
f 126/70/113 127/69/113 143/69/113 142/70/113
f 119/77/114 120/76/114 136/76/114 135/77/114
f 127/69/115 128/68/115 144/68/115 143/69/115
f 120/76/116 121/75/116 137/75/116 136/76/116
f 156/72/117 157/71/117 173/71/117 172/72/117
f 143/69/118 144/68/118 160/68/118 159/69/118
f 136/76/119 137/75/119 153/75/119 152/76/119
f 129/67/120 130/82/120 146/82/120 145/67/120
f 144/68/121 129/67/121 145/67/121 160/68/121
f 137/75/122 138/74/122 154/74/122 153/75/122
f 130/82/123 131/81/123 147/81/123 146/82/123
f 138/74/124 139/73/124 155/73/124 154/74/124
f 131/81/125 132/80/125 148/80/125 147/81/125
f 139/73/126 140/72/126 156/72/126 155/73/126
f 132/80/127 133/79/127 149/79/127 148/80/127
f 140/72/128 141/71/128 157/71/128 156/72/128
f 133/79/129 134/78/129 150/78/129 149/79/129
f 141/71/130 142/70/130 158/70/130 157/71/130
f 134/78/131 135/77/131 151/77/131 150/78/131
f 142/70/132 143/69/132 159/69/132 158/70/132
f 170/74/133 171/73/133 187/73/133 186/74/133
f 149/79/134 150/78/134 166/78/134 165/79/134
f 157/71/135 158/70/135 174/70/135 173/71/135
f 150/78/136 151/77/136 167/77/136 166/78/136
f 158/70/137 159/69/137 175/69/137 174/70/137
f 151/77/138 152/76/138 168/76/138 167/77/138
f 159/69/139 160/68/139 176/68/139 175/69/139
f 152/76/140 153/75/140 169/75/140 168/76/140
f 145/67/141 146/82/141 162/82/141 161/67/141
f 160/68/142 145/67/142 161/67/142 176/68/142
f 153/75/143 154/74/143 170/74/143 169/75/143
f 146/82/144 147/81/144 163/81/144 162/82/144
f 154/74/145 155/73/145 171/73/145 170/74/145
f 147/81/146 148/80/146 164/80/146 163/81/146
f 155/73/147 156/72/147 172/72/147 171/73/147
f 148/80/148 149/79/148 165/79/148 164/80/148
f 191/69/149 192/68/149 208/68/149 207/69/149
f 163/81/150 164/80/150 180/80/150 179/81/150
f 171/73/151 172/72/151 188/72/151 187/73/151
f 164/80/152 165/79/152 181/79/152 180/80/152
f 172/72/153 173/71/153 189/71/153 188/72/153
f 165/79/154 166/78/154 182/78/154 181/79/154
f 173/71/155 174/70/155 190/70/155 189/71/155
f 166/78/156 167/77/156 183/77/156 182/78/156
f 174/70/157 175/69/157 191/69/157 190/70/157
f 167/77/158 168/76/158 184/76/158 183/77/158
f 175/69/159 176/68/159 192/68/159 191/69/159
f 168/76/160 169/75/160 185/75/160 184/76/160
f 161/67/161 162/82/161 178/82/161 177/67/161
f 176/68/162 161/67/162 177/67/162 192/68/162
f 169/75/163 170/74/163 186/74/163 185/75/163
f 162/82/164 163/81/164 179/81/164 178/82/164
f 197/79/165 198/78/165 214/78/165 213/79/165
f 184/76/166 185/75/166 201/75/166 200/76/166
f 177/67/167 178/82/167 194/82/167 193/67/167
f 192/68/168 177/67/168 193/67/168 208/68/168
f 185/75/169 186/74/169 202/74/169 201/75/169
f 178/82/170 179/81/170 195/81/170 194/82/170
f 186/74/171 187/73/171 203/73/171 202/74/171
f 179/81/172 180/80/172 196/80/172 195/81/172
f 187/73/173 188/72/173 204/72/173 203/73/173
f 180/80/174 181/79/174 197/79/174 196/80/174
f 188/72/175 189/71/175 205/71/175 204/72/175
f 181/79/176 182/78/176 198/78/176 197/79/176
f 189/71/177 190/70/177 206/70/177 205/71/177
f 182/78/178 183/77/178 199/77/178 198/78/178
f 190/70/179 191/69/179 207/69/179 206/70/179
f 183/77/180 184/76/180 200/76/180 199/77/180
f 209/67/181 210/82/181 211/81/181 212/80/181 213/79/181 214/78/181 215/77/181 216/76/181 217/75/181 218/74/181 219/73/181 220/72/181 221/71/181 222/70/181 223/69/181 224/68/181
f 205/71/182 206/70/182 222/70/182 221/71/182
f 198/78/183 199/77/183 215/77/183 214/78/183
f 206/70/184 207/69/184 223/69/184 222/70/184
f 199/77/185 200/76/185 216/76/185 215/77/185
f 207/69/186 208/68/186 224/68/186 223/69/186
f 200/76/187 201/75/187 217/75/187 216/76/187
f 193/67/188 194/82/188 210/82/188 209/67/188
f 208/68/189 193/67/189 209/67/189 224/68/189
f 201/75/190 202/74/190 218/74/190 217/75/190
f 194/82/191 195/81/191 211/81/191 210/82/191
f 202/74/192 203/73/192 219/73/192 218/74/192
f 195/81/193 196/80/193 212/80/193 211/81/193
f 203/73/194 204/72/194 220/72/194 219/73/194
f 196/80/195 197/79/195 213/79/195 212/80/195
f 204/72/196 205/71/196 221/71/196 220/72/196
