# Blender 4.2.0
# www.blender.org
mtllib StraightShelf.mtl
o Shelf
v -24.162779 18.657587 0.864425
v -24.162779 18.884535 0.864425
v -24.162779 18.657587 -5.941837
v -24.162779 18.884535 -5.941837
v -22.292185 18.657587 0.864425
v -22.292185 18.884535 0.864425
v -22.292185 18.657587 -5.941837
v -22.292185 18.884535 -5.941837
v -24.162779 18.657587 -5.196143
v -24.162779 18.657587 -5.059445
v -24.162779 18.657587 -0.028479
v -24.162779 18.657587 0.100245
v -24.162779 18.884535 0.100245
v -24.162779 18.884535 -0.028479
v -24.162779 18.884535 -5.059445
v -24.162779 18.884535 -5.196143
v -22.292185 18.657587 0.100245
v -22.292185 18.657587 -0.028479
v -22.292185 18.657587 -5.059445
v -22.292185 18.657587 -5.196143
v -22.292185 18.884535 -5.196143
v -22.292185 18.884535 -5.059445
v -22.292185 18.884535 -0.028479
v -22.292185 18.884535 0.100245
v -24.162779 17.778486 -5.196143
v -24.162779 17.778486 -5.059445
v -24.162779 17.778486 -0.028479
v -24.162779 17.778486 0.100245
v -24.162779 17.778486 0.100245
v -22.292185 18.657587 0.100245
v -22.292185 18.657587 -0.028479
v -24.162779 17.778486 -0.028479
v -24.162779 17.778486 -5.059445
v -22.292185 18.657587 -5.059445
v -22.292185 18.657587 -5.196143
v -24.162779 17.778486 -5.196143
vn -1.0000 -0.0000 -0.0000
vn -0.0000 -0.0000 -1.0000
vn 1.0000 -0.0000 -0.0000
vn -0.0000 -0.0000 1.0000
vn -0.0000 -1.0000 -0.0000
vn -0.0000 1.0000 -0.0000
vn 0.4253 -0.9050 -0.0000
vt 0.375000 0.200000
vt 0.625000 0.200000
vt 0.625000 0.250000
vt 0.375000 0.250000
vt 0.625000 0.500000
vt 0.375000 0.500000
vt 0.375000 0.700000
vt 0.625000 0.700000
vt 0.625000 0.750000
vt 0.375000 0.750000
vt 0.625000 1.000000
vt 0.375000 1.000000
vt 0.125000 0.700000
vt 0.125000 0.750000
vt 0.875000 0.700000
vt 0.875000 0.750000
vt 0.875000 0.500000
vt 0.875000 0.550000
vt 0.625000 0.550000
vt 0.875000 0.600000
vt 0.625000 0.600000
vt 0.875000 0.650000
vt 0.625000 0.650000
vt 0.125000 0.500000
vt 0.375000 0.550000
vt 0.125000 0.550000
vt 0.375000 0.150000
vt 0.125000 0.600000
vt 0.375000 0.600000
vt 0.375000 0.650000
vt 0.125000 0.650000
vt 0.375000 0.000000
vt 0.625000 0.000000
vt 0.625000 0.050000
vt 0.375000 0.050000
vt 0.625000 0.100000
vt 0.375000 0.100000
vt 0.625000 0.150000
s 0
f 9/1/1 16/2/1 4/3/1 3/4/1
f 3/4/2 4/3/2 8/5/2 7/6/2
f 17/7/3 24/8/3 6/9/3 5/10/3
f 5/10/4 6/9/4 2/11/4 1/12/4
f 12/13/5 17/7/5 5/10/5 1/14/5
f 24/8/6 13/15/6 2/16/6 6/9/6
f 8/5/6 4/17/6 16/18/6 21/19/6
f 21/19/6 16/18/6 15/20/6 22/21/6
f 22/21/6 15/20/6 14/22/6 23/23/6
f 23/23/6 14/22/6 13/15/6 24/8/6
f 3/24/5 7/6/5 20/25/5 9/26/5
f 10/27/1 9/1/1 25/1/1 26/27/1
f 10/28/5 19/29/5 18/30/5 11/31/5
f 11/31/2 18/30/2 31/30/2 32/31/2 27/31/2
f 7/6/3 8/5/3 21/19/3 20/25/3
f 20/25/3 21/19/3 22/21/3 19/29/3
f 19/29/3 22/21/3 23/23/3 18/30/3
f 18/30/3 23/23/3 24/8/3 17/7/3
f 1/32/1 2/33/1 13/34/1 12/35/1
f 12/35/1 13/34/1 14/36/1 11/37/1
f 11/37/1 14/36/1 15/38/1 10/27/1
f 10/27/1 15/38/1 16/2/1 9/1/1
f 19/29/4 10/28/4 26/28/4 33/28/4 34/29/4
f 17/7/4 12/13/4 28/13/4 29/13/4 30/7/4
f 9/26/2 20/25/2 35/25/2 36/26/2 25/26/2
f 20/25/6 19/29/6 34/29/6 35/25/6
f 25/26/6 36/26/6 33/28/6 26/28/6
f 27/31/6 32/31/6 29/13/6 28/13/6
f 12/35/1 11/37/1 27/37/1 28/35/1
f 29/13/7 32/31/7 31/30/7 30/7/7
f 33/28/7 36/26/7 35/25/7 34/29/7
f 18/30/6 17/7/6 30/7/6 31/30/6
