# Blender 4.2.0
# www.blender.org
mtllib Window.mtl
o WindowFrame
v -25.104662 14.017472 12.058598
v -25.104662 14.017472 2.666786
v -22.456861 13.393093 12.226379
v -22.456861 13.393093 2.499004
v -25.104662 20.776249 12.058598
v -25.104662 27.647644 7.362692
v -25.104662 22.168327 11.964124
v -25.104662 23.443836 11.697517
v -25.104662 24.619352 11.264572
v -25.104662 25.649702 10.681925
v -25.104662 26.495287 9.971967
v -25.104662 27.123613 9.161983
v -25.104662 27.510536 8.283098
v -25.104662 20.776249 2.666786
v -25.104662 27.510536 6.442286
v -25.104662 27.123613 5.563401
v -25.104662 26.495287 4.753417
v -25.104662 25.649702 4.043459
v -25.104662 24.619352 3.460812
v -25.104662 23.443836 3.027867
v -25.104662 22.168327 2.761260
v -22.456861 27.510263 7.362692
v -22.456861 20.354836 12.226379
v -22.456861 27.364466 8.315969
v -22.456861 26.963991 9.225636
v -22.456861 26.313660 10.063988
v -22.456861 25.438457 10.798811
v -22.456861 24.372023 11.401865
v -22.456861 23.155336 11.849974
v -22.456861 21.835152 12.125917
v -22.456861 20.354836 2.499004
v -22.456861 21.835152 2.599467
v -22.456861 23.155336 2.875411
v -22.456861 24.372023 3.323519
v -22.456861 25.438457 3.926573
v -22.456861 26.313660 4.661396
v -22.456861 26.963991 5.499749
v -22.456861 27.364466 6.409415
v -25.104662 12.682329 1.746812
v -25.104662 12.682329 12.978572
v -25.104662 28.826359 6.261939
v -25.104662 28.982786 7.362692
v -25.104662 28.363094 5.209639
v -25.104662 27.610790 4.239833
v -25.104662 26.598358 3.389792
v -25.104662 25.364708 2.692180
v -25.104662 23.957245 2.173809
v -25.104662 22.430061 1.854597
v -25.104662 20.841841 1.746812
v -25.104662 28.826359 8.463445
v -25.104662 28.363094 9.515745
v -25.104662 27.610790 10.485551
v -25.104662 26.598358 11.335592
v -25.104662 25.364708 12.033203
v -25.104662 23.957245 12.551575
v -25.104662 22.430061 12.870787
v -25.104662 20.841841 12.978572
v -22.456861 12.682329 12.978572
v -22.456861 12.682329 1.746812
v -22.456861 28.982786 7.362692
v -22.456861 28.826359 6.261939
v -22.456861 28.363094 5.209639
v -22.456861 27.610790 4.239833
v -22.456861 26.598358 3.389792
v -22.456861 25.364708 2.692180
v -22.456861 23.957245 2.173809
v -22.456861 22.430061 1.854597
v -22.456861 20.841841 1.746812
v -22.456861 28.826359 8.463445
v -22.456861 28.363094 9.515745
v -22.456861 27.610790 10.485551
v -22.456861 26.598358 11.335592
v -22.456861 25.364708 12.033203
v -22.456861 23.957245 12.551575
v -22.456861 22.430061 12.870787
v -22.456861 20.841841 12.978572
vn 0.0632 -0.0000 0.9980
vn -0.0000 -1.0000 -0.0000
vn -0.0000 -0.0000 -1.0000
vn -0.0000 0.9901 -0.1407
vn -0.0000 0.9152 -0.4029
vn -0.0000 0.7901 -0.6129
vn -0.0000 0.6430 -0.7659
vn -0.0000 0.4922 -0.8705
vn -0.0000 0.3456 -0.9384
vn -0.0000 0.2046 -0.9788
vn -0.0000 0.0677 -0.9977
vn -0.0000 0.9901 0.1407
vn -0.0000 0.9152 0.4029
vn -0.0000 0.7901 0.6129
vn -0.0000 0.6430 0.7659
vn -0.0000 0.4922 0.8705
vn -0.0000 0.3456 0.9384
vn -0.0000 0.2046 0.9788
vn -0.0000 0.0677 0.9977
vn -0.0000 -0.0000 1.0000
vn -1.0000 -0.0000 -0.0000
vn 1.0000 -0.0000 -0.0000
vn 0.0524 -0.0676 0.9963
vn 0.0340 -0.2045 0.9783
vn 0.0164 -0.3456 0.9383
vn -0.0008 -0.4922 0.8705
vn -0.0175 -0.6429 0.7657
vn -0.0329 -0.7897 0.6126
vn -0.0454 -0.9143 0.4025
vn -0.0519 -0.9875 0.1491
vn -0.0519 -0.9875 -0.1491
vn -0.0454 -0.9143 -0.4025
vn -0.0329 -0.7897 -0.6126
vn -0.0175 -0.6429 -0.7657
vn -0.0008 -0.4922 -0.8705
vn 0.0164 -0.3456 -0.9383
vn 0.0340 -0.2045 -0.9783
vn 0.0524 -0.0676 -0.9963
vn 0.0632 -0.0000 -0.9980
vn 0.2295 0.9733 -0.0000
vt 0.404554 0.529554
vt 0.498690 0.529554
vt 0.499136 0.229523
vt 0.395477 0.229523
vt 0.125000 0.500000
vt 0.375000 0.500000
vt 0.375000 0.750000
vt 0.125000 0.750000
vt 0.375000 0.250000
vt 0.500142 0.250000
vt 0.500142 0.500000
vt 0.875000 0.624858
vt 0.625000 0.624858
vt 0.625000 0.600499
vt 0.875000 0.600499
vt 0.625000 0.577077
vt 0.875000 0.577077
vt 0.625000 0.555490
vt 0.875000 0.555490
vt 0.625000 0.500000
vt 0.875000 0.500000
vt 0.625000 0.250000
vt 0.569510 0.500000
vt 0.569510 0.250000
vt 0.547923 0.500000
vt 0.547923 0.250000
vt 0.524501 0.500000
vt 0.524501 0.250000
vt 0.625000 0.625142
vt 0.875000 0.625142
vt 0.875000 0.649501
vt 0.625000 0.649501
vt 0.875000 0.672923
vt 0.625000 0.672923
vt 0.875000 0.694510
vt 0.625000 0.694510
vt 0.875000 0.750000
vt 0.625000 0.750000
vt 0.625000 1.000000
vt 0.569510 1.000000
vt 0.569510 0.750000
vt 0.547923 1.000000
vt 0.547923 0.750000
vt 0.524501 1.000000
vt 0.524501 0.750000
vt 0.500142 1.000000
vt 0.500142 0.750000
vt 0.375000 1.000000
vt 0.395477 0.020477
vt 0.375000 0.000000
vt 0.602420 0.145487
vt 0.604523 0.124136
vt 0.625000 0.125142
vt 0.622601 0.149501
vt 0.596486 0.165049
vt 0.615496 0.172923
vt 0.586849 0.183078
vt 0.603958 0.194510
vt 0.573880 0.198881
vt 0.588430 0.213430
vt 0.558078 0.211849
vt 0.569510 0.228958
vt 0.540049 0.221486
vt 0.547923 0.240496
vt 0.520487 0.227420
vt 0.524501 0.247601
vt 0.604523 0.125864
vt 0.602420 0.104513
vt 0.622601 0.100499
vt 0.625000 0.124858
vt 0.596486 0.084951
vt 0.615496 0.077077
vt 0.586849 0.066922
vt 0.603958 0.055490
vt 0.573880 0.051119
vt 0.588430 0.036570
vt 0.558078 0.038151
vt 0.569510 0.021042
vt 0.540049 0.028514
vt 0.547923 0.009504
vt 0.520487 0.022580
vt 0.524501 0.002399
vt 0.499136 0.020477
vt 0.500142 0.000000
vt 0.404554 0.720446
vt 0.595446 0.626310
vt 0.593475 0.606293
vt 0.622601 0.600499
vt 0.588059 0.588441
vt 0.615496 0.577077
vt 0.579266 0.571989
vt 0.603958 0.555490
vt 0.567431 0.557569
vt 0.588430 0.536570
vt 0.553011 0.545735
vt 0.569510 0.521042
vt 0.536559 0.536941
vt 0.547923 0.509504
vt 0.518707 0.531526
vt 0.524501 0.502399
vt 0.593475 0.643707
vt 0.595446 0.623691
vt 0.622601 0.649501
vt 0.588059 0.661559
vt 0.615496 0.672923
vt 0.579266 0.678011
vt 0.603958 0.694510
vt 0.567431 0.692431
vt 0.588430 0.713430
vt 0.553011 0.704266
vt 0.569510 0.728958
vt 0.536559 0.713059
vt 0.547923 0.740496
vt 0.518707 0.718475
vt 0.524501 0.747601
vt 0.498690 0.720446
s 0
f 4/1/1 31/2/1 14/3/1 2/4/1
f 39/5/2 59/6/2 58/7/2 40/8/2
f 39/9/3 49/10/3 68/11/3 59/6/3
f 42/12/4 60/13/4 61/14/4 41/15/4
f 41/15/5 61/14/5 62/16/5 43/17/5
f 43/17/6 62/16/6 63/18/6 44/19/6
f 44/19/7 63/18/7 64/20/7 45/21/7
f 45/22/8 64/20/8 65/23/8 46/24/8
f 46/24/9 65/23/9 66/25/9 47/26/9
f 47/26/10 66/25/10 67/27/10 48/28/10
f 48/28/11 67/27/11 68/11/11 49/10/11
f 60/29/12 42/30/12 50/31/12 69/32/12
f 69/32/13 50/31/13 51/33/13 70/34/13
f 70/34/14 51/33/14 52/35/14 71/36/14
f 71/36/15 52/35/15 53/37/15 72/38/15
f 72/38/16 53/39/16 54/40/16 73/41/16
f 73/41/17 54/40/17 55/42/17 74/43/17
f 74/43/18 55/42/18 56/44/18 75/45/18
f 75/45/19 56/44/19 57/46/19 76/47/19
f 58/7/20 76/47/20 57/46/20 40/48/20
f 1/49/21 2/4/21 39/9/21 40/50/21
f 15/51/21 6/52/21 42/53/21 41/54/21
f 16/55/21 15/51/21 41/54/21 43/56/21
f 17/57/21 16/55/21 43/56/21 44/58/21
f 18/59/21 17/57/21 44/58/21 45/60/21
f 19/61/21 18/59/21 45/60/21 46/62/21
f 20/63/21 19/61/21 46/62/21 47/64/21
f 21/65/21 20/63/21 47/64/21 48/66/21
f 14/3/21 21/65/21 48/66/21 49/10/21
f 6/67/21 13/68/21 50/69/21 42/70/21
f 13/68/21 12/71/21 51/72/21 50/69/21
f 12/71/21 11/73/21 52/74/21 51/72/21
f 11/73/21 10/75/21 53/76/21 52/74/21
f 10/75/21 9/77/21 54/78/21 53/76/21
f 9/77/21 8/79/21 55/80/21 54/78/21
f 8/79/21 7/81/21 56/82/21 55/80/21
f 7/81/21 5/83/21 57/84/21 56/82/21
f 5/83/21 1/49/21 40/50/21 57/84/21
f 2/4/21 14/3/21 49/10/21 39/9/21
f 4/1/22 3/85/22 58/7/22 59/6/22
f 22/86/22 38/87/22 61/88/22 60/13/22
f 38/87/22 37/89/22 62/90/22 61/88/22
f 37/89/22 36/91/22 63/92/22 62/90/22
f 36/91/22 35/93/22 64/94/22 63/92/22
f 35/93/22 34/95/22 65/96/22 64/94/22
f 34/95/22 33/97/22 66/98/22 65/96/22
f 33/97/22 32/99/22 67/100/22 66/98/22
f 32/99/22 31/2/22 68/11/22 67/100/22
f 24/101/22 22/102/22 60/29/22 69/103/22
f 25/104/22 24/101/22 69/103/22 70/105/22
f 26/106/22 25/104/22 70/105/22 71/107/22
f 27/108/22 26/106/22 71/107/22 72/109/22
f 28/110/22 27/108/22 72/109/22 73/111/22
f 29/112/22 28/110/22 73/111/22 74/113/22
f 30/114/22 29/112/22 74/113/22 75/115/22
f 23/116/22 30/114/22 75/115/22 76/47/22
f 3/85/22 23/116/22 76/47/22 58/7/22
f 31/2/22 4/1/22 59/6/22 68/11/22
f 31/2/23 32/99/23 21/65/23 14/3/23
f 32/99/24 33/97/24 20/63/24 21/65/24
f 33/97/25 34/95/25 19/61/25 20/63/25
f 34/95/26 35/93/26 18/59/26 19/61/26
f 35/93/27 36/91/27 17/57/27 18/59/27
f 36/91/28 37/89/28 16/55/28 17/57/28
f 37/89/29 38/87/29 15/51/29 16/55/29
f 38/87/30 22/86/30 6/52/30 15/51/30
f 22/102/31 24/101/31 13/68/31 6/67/31
f 24/101/32 25/104/32 12/71/32 13/68/32
f 25/104/33 26/106/33 11/73/33 12/71/33
f 26/106/34 27/108/34 10/75/34 11/73/34
f 27/108/35 28/110/35 9/77/35 10/75/35
f 28/110/36 29/112/36 8/79/36 9/77/36
f 29/112/37 30/114/37 7/81/37 8/79/37
f 30/114/38 23/116/38 5/83/38 7/81/38
f 23/116/39 3/85/39 1/49/39 5/83/39
f 3/85/40 4/1/40 2/4/40 1/49/40
o Window.001
v -24.172777 13.797725 12.117648
v -24.172777 20.627934 12.117648
v -24.172777 22.051067 12.021068
v -24.172777 23.342299 11.751174
v -24.172777 24.532305 11.312892
v -24.172777 25.575356 10.723063
v -24.172777 26.431362 10.004354
v -24.172777 27.067434 9.184385
v -24.172777 27.599293 7.362692
v -24.172777 27.459126 8.294667
v -24.172777 27.459126 6.430717
v -24.172777 26.431362 4.721030
v -24.172777 25.575356 4.002322
v -24.172777 27.067434 5.540999
v -24.172777 23.342299 2.974210
v -24.172777 13.797725 2.607736
v -24.172777 20.627934 2.607736
v -24.172777 22.051067 2.704317
v -24.172777 24.532305 3.412492
vn 1.0000 -0.0000 -0.0000
vt 0.569623 0.047683
vt 0.566894 0.043446
vt 0.562463 0.039541
vt 0.556500 0.036118
vt 0.549233 0.033309
vt 0.540943 0.031221
vt 0.531948 0.029936
vt 0.522033 0.029476
vt 0.474451 0.029476
vt 0.474451 0.074767
vt 0.522033 0.074767
vt 0.531948 0.074307
vt 0.540943 0.073021
vt 0.549233 0.070934
vt 0.556500 0.068125
vt 0.562463 0.064702
vt 0.566894 0.060797
vt 0.569623 0.056560
vt 0.570599 0.052121
s 0
f 86/117/41 84/118/41 83/119/41 82/120/41 81/121/41 80/122/41 79/123/41 78/124/41 77/125/41 92/126/41 93/127/41 94/128/41 91/129/41 95/130/41 89/131/41 88/132/41 90/133/41 87/134/41 85/135/41
o WindowBar
v -23.359655 13.026585 6.981233
v -23.359655 27.852467 6.981233
v -23.267284 13.026585 6.999607
v -23.267284 27.852467 6.999607
v -23.188976 13.026585 7.051930
v -23.188976 27.852467 7.051930
v -23.136652 13.026585 7.130239
v -23.136652 27.852467 7.130239
v -23.118279 13.026585 7.222609
v -23.118279 27.852467 7.222609
v -23.136652 13.026585 7.314980
v -23.136652 27.852467 7.314980
v -23.188976 13.026585 7.393288
v -23.188976 27.852467 7.393288
v -23.267284 13.026585 7.445611
v -23.267284 27.852467 7.445611
v -23.359655 13.026585 7.463985
v -23.359655 27.852467 7.463985
v -23.452026 13.026585 7.445611
v -23.452026 27.852467 7.445611
v -23.530334 13.026585 7.393288
v -23.530334 27.852467 7.393288
v -23.582659 13.026585 7.314980
v -23.582659 27.852467 7.314980
v -23.601032 13.026585 7.222609
v -23.601032 27.852467 7.222609
v -23.582659 13.026585 7.130239
v -23.582659 27.852467 7.130239
v -23.530334 13.026585 7.051930
v -23.530334 27.852467 7.051930
v -23.452026 13.026585 6.999607
v -23.452026 27.852467 6.999607
vn 0.1951 -0.0000 -0.9808
vn 0.5556 -0.0000 -0.8315
vn 0.8315 -0.0000 -0.5556
vn 0.9808 -0.0000 -0.1951
vn 0.9808 -0.0000 0.1951
vn 0.8315 -0.0000 0.5556
vn 0.5556 -0.0000 0.8315
vn 0.1951 -0.0000 0.9808
vn -0.1951 -0.0000 0.9808
vn -0.5556 -0.0000 0.8315
vn -0.8315 -0.0000 0.5556
vn -0.9808 -0.0000 0.1951
vn -0.9808 -0.0000 -0.1951
vn -0.8315 -0.0000 -0.5556
vn -0.0000 1.0000 -0.0000
vn -0.5556 -0.0000 -0.8315
vn -0.1951 -0.0000 -0.9808
vn -0.0000 -1.0000 -0.0000
vt 1.000000 0.500000
vt 1.000000 1.000000
vt 0.937500 1.000000
vt 0.937500 0.500000
vt 0.875000 1.000000
vt 0.875000 0.500000
vt 0.812500 1.000000
vt 0.812500 0.500000
vt 0.750000 1.000000
vt 0.750000 0.500000
vt 0.687500 1.000000
vt 0.687500 0.500000
vt 0.625000 1.000000
vt 0.625000 0.500000
vt 0.562500 1.000000
vt 0.562500 0.500000
vt 0.500000 1.000000
vt 0.500000 0.500000
vt 0.437500 1.000000
vt 0.437500 0.500000
vt 0.375000 1.000000
vt 0.375000 0.500000
vt 0.312500 1.000000
vt 0.312500 0.500000
vt 0.250000 1.000000
vt 0.250000 0.500000
vt 0.187500 1.000000
vt 0.187500 0.500000
vt 0.125000 1.000000
vt 0.125000 0.500000
vt 0.341844 0.471731
vt 0.250000 0.490000
vt 0.158156 0.471731
vt 0.080294 0.419706
vt 0.028269 0.341844
vt 0.010000 0.250000
vt 0.028269 0.158156
vt 0.080294 0.080294
vt 0.158156 0.028269
vt 0.250000 0.010000
vt 0.341844 0.028269
vt 0.419706 0.080294
vt 0.471731 0.158156
vt 0.490000 0.250000
vt 0.471731 0.341844
vt 0.419706 0.419706
vt 0.062500 1.000000
vt 0.062500 0.500000
vt 0.000000 1.000000
vt 0.000000 0.500000
vt 0.750000 0.490000
vt 0.841844 0.471731
vt 0.919706 0.419706
vt 0.971731 0.341844
vt 0.990000 0.250000
vt 0.971731 0.158156
vt 0.919706 0.080294
vt 0.841844 0.028269
vt 0.750000 0.010000
vt 0.658156 0.028269
vt 0.580294 0.080294
vt 0.528269 0.158156
vt 0.510000 0.250000
vt 0.528269 0.341844
vt 0.580294 0.419706
vt 0.658156 0.471731
s 0
f 96/136/42 97/137/42 99/138/42 98/139/42
f 98/139/43 99/138/43 101/140/43 100/141/43
f 100/141/44 101/140/44 103/142/44 102/143/44
f 102/143/45 103/142/45 105/144/45 104/145/45
f 104/145/46 105/144/46 107/146/46 106/147/46
f 106/147/47 107/146/47 109/148/47 108/149/47
f 108/149/48 109/148/48 111/150/48 110/151/48
f 110/151/49 111/150/49 113/152/49 112/153/49
f 112/153/50 113/152/50 115/154/50 114/155/50
f 114/155/51 115/154/51 117/156/51 116/157/51
f 116/157/52 117/156/52 119/158/52 118/159/52
f 118/159/53 119/158/53 121/160/53 120/161/53
f 120/161/54 121/160/54 123/162/54 122/163/54
f 122/163/55 123/162/55 125/164/55 124/165/55
f 99/166/56 97/167/56 127/168/56 125/169/56 123/170/56 121/171/56 119/172/56 117/173/56 115/174/56 113/175/56 111/176/56 109/177/56 107/178/56 105/179/56 103/180/56 101/181/56
f 124/165/57 125/164/57 127/182/57 126/183/57
f 126/183/58 127/182/58 97/184/58 96/185/58
f 96/186/59 98/187/59 100/188/59 102/189/59 104/190/59 106/191/59 108/192/59 110/193/59 112/194/59 114/195/59 116/196/59 118/197/59 120/198/59 122/199/59 124/200/59 126/201/59
o WindowBar.001
v -23.143213 20.696354 2.239609
v -23.143213 20.665447 12.500242
v -23.050842 20.677980 2.239554
v -23.050842 20.647074 12.500187
v -22.972534 20.625656 2.239396
v -22.972534 20.594749 12.500030
v -22.920210 20.547348 2.239160
v -22.920210 20.516443 12.499794
v -22.901836 20.454979 2.238882
v -22.901836 20.424072 12.499516
v -22.920210 20.362608 2.238604
v -22.920210 20.331703 12.499237
v -22.972534 20.284302 2.238368
v -22.972534 20.253395 12.499002
v -23.050842 20.231977 2.238210
v -23.050842 20.201071 12.498844
v -23.143213 20.213604 2.238155
v -23.143213 20.182697 12.498789
v -23.235584 20.231977 2.238210
v -23.235584 20.201071 12.498844
v -23.313892 20.284302 2.238368
v -23.313892 20.253395 12.499002
v -23.366217 20.362608 2.238604
v -23.366217 20.331703 12.499237
v -23.384590 20.454979 2.238882
v -23.384590 20.424072 12.499516
v -23.366217 20.547348 2.239160
v -23.366217 20.516443 12.499794
v -23.313892 20.625656 2.239396
v -23.313892 20.594749 12.500030
v -23.235584 20.677980 2.239554
v -23.235584 20.647074 12.500187
vn 0.1951 0.9808 0.0030
vn 0.5556 0.8315 0.0025
vn 0.8315 0.5556 0.0017
vn 0.9808 0.1951 0.0006
vn 0.9808 -0.1951 -0.0006
vn 0.8315 -0.5556 -0.0017
vn 0.5556 -0.8315 -0.0025
vn 0.1951 -0.9808 -0.0030
vn -0.1951 -0.9808 -0.0030
vn -0.5556 -0.8315 -0.0025
vn -0.8315 -0.5556 -0.0017
vn -0.9808 -0.1951 -0.0006
vn -0.9808 0.1951 0.0006
vn -0.8315 0.5556 0.0017
vn -0.0000 -0.0030 1.0000
vn -0.5556 0.8315 0.0025
vn -0.1951 0.9808 0.0030
vn -0.0000 0.0030 -1.0000
vt 1.000000 0.500000
vt 1.000000 1.000000
vt 0.937500 1.000000
vt 0.937500 0.500000
vt 0.875000 1.000000
vt 0.875000 0.500000
vt 0.812500 1.000000
vt 0.812500 0.500000
vt 0.750000 1.000000
vt 0.750000 0.500000
vt 0.687500 1.000000
vt 0.687500 0.500000
vt 0.625000 1.000000
vt 0.625000 0.500000
vt 0.562500 1.000000
vt 0.562500 0.500000
vt 0.500000 1.000000
vt 0.500000 0.500000
vt 0.437500 1.000000
vt 0.437500 0.500000
vt 0.375000 1.000000
vt 0.375000 0.500000
vt 0.312500 1.000000
vt 0.312500 0.500000
vt 0.250000 1.000000
vt 0.250000 0.500000
vt 0.187500 1.000000
vt 0.187500 0.500000
vt 0.125000 1.000000
vt 0.125000 0.500000
vt 0.341844 0.471731
vt 0.250000 0.490000
vt 0.158156 0.471731
vt 0.080294 0.419706
vt 0.028269 0.341844
vt 0.010000 0.250000
vt 0.028269 0.158156
vt 0.080294 0.080294
vt 0.158156 0.028269
vt 0.250000 0.010000
vt 0.341844 0.028269
vt 0.419706 0.080294
vt 0.471731 0.158156
vt 0.490000 0.250000
vt 0.471731 0.341844
vt 0.419706 0.419706
vt 0.062500 1.000000
vt 0.062500 0.500000
vt 0.000000 1.000000
vt 0.000000 0.500000
vt 0.750000 0.490000
vt 0.841844 0.471731
vt 0.919706 0.419706
vt 0.971731 0.341844
vt 0.990000 0.250000
vt 0.971731 0.158156
vt 0.919706 0.080294
vt 0.841844 0.028269
vt 0.750000 0.010000
vt 0.658156 0.028269
vt 0.580294 0.080294
vt 0.528269 0.158156
vt 0.510000 0.250000
vt 0.528269 0.341844
vt 0.580294 0.419706
vt 0.658156 0.471731
s 0
f 128/202/60 129/203/60 131/204/60 130/205/60
f 130/205/61 131/204/61 133/206/61 132/207/61
f 132/207/62 133/206/62 135/208/62 134/209/62
f 134/209/63 135/208/63 137/210/63 136/211/63
f 136/211/64 137/210/64 139/212/64 138/213/64
f 138/213/65 139/212/65 141/214/65 140/215/65
f 140/215/66 141/214/66 143/216/66 142/217/66
f 142/217/67 143/216/67 145/218/67 144/219/67
f 144/219/68 145/218/68 147/220/68 146/221/68
f 146/221/69 147/220/69 149/222/69 148/223/69
f 148/223/70 149/222/70 151/224/70 150/225/70
f 150/225/71 151/224/71 153/226/71 152/227/71
f 152/227/72 153/226/72 155/228/72 154/229/72
f 154/229/73 155/228/73 157/230/73 156/231/73
f 131/232/74 129/233/74 159/234/74 157/235/74 155/236/74 153/237/74 151/238/74 149/239/74 147/240/74 145/241/74 143/242/74 141/243/74 139/244/74 137/245/74 135/246/74 133/247/74
f 156/231/75 157/230/75 159/248/75 158/249/75
f 158/249/76 159/248/76 129/250/76 128/251/76
f 128/252/77 130/253/77 132/254/77 134/255/77 136/256/77 138/257/77 140/258/77 142/259/77 144/260/77 146/261/77 148/262/77 150/263/77 152/264/77 154/265/77 156/266/77 158/267/77
